<?xml version="1.0" standalone="no"?>
<!DOCTYPE svg PUBLIC "-//W3C//DTD SVG 20010904//EN"
 "http://www.w3.org/TR/2001/REC-SVG-20010904/DTD/svg10.dtd">
<svg version="1.0" xmlns="http://www.w3.org/2000/svg"
 width="225.000000pt" height="225.000000pt" viewBox="0 0 225.000000 225.000000"
 preserveAspectRatio="xMidYMid meet">

<g transform="translate(0.000000,225.000000) scale(0.100000,-0.100000)"
fill="#000000" stroke="none">
<path d="M1057 2124 c-91 -98 -101 -119 -98 -196 1 -15 15 -43 31 -61 21 -24
30 -45 30 -68 0 -58 -4 -59 -130 -33 -191 40 -333 28 -495 -42 -45 -19 -85
-34 -91 -34 -6 0 -18 16 -27 35 -36 76 -144 87 -204 21 -28 -30 -33 -43 -33
-83 0 -67 28 -109 93 -139 29 -13 83 -27 119 -31 l65 -8 -118 -225 c-112 -215
-119 -225 -150 -230 -61 -10 -62 -70 0 -70 21 0 31 -9 50 -45 64 -120 220
-193 353 -166 72 15 97 33 82 58 -7 11 -21 17 -35 15 -13 -2 -60 -4 -104 -5
-72 -2 -85 1 -134 28 -30 17 -68 48 -83 70 l-29 40 126 3 c69 1 180 1 247 0
l120 -3 -22 -28 c-26 -33 -23 -61 8 -65 24 -4 53 24 73 70 8 19 19 28 41 30
36 3 59 31 41 49 -6 6 -26 14 -44 18 -32 6 -39 18 -161 251 -70 135 -126 249
-124 255 1 5 34 21 72 34 94 33 213 33 354 2 58 -13 108 -26 112 -30 4 -3 -9
-213 -27 -466 -19 -253 -35 -474 -35 -492 0 -28 -5 -34 -44 -52 -59 -26 -81
-61 -80 -128 l2 -53 -64 0 c-74 0 -109 -11 -147 -48 -40 -38 -57 -74 -57 -122
0 -52 13 -76 50 -95 44 -23 1026 -23 1070 0 37 19 50 43 50 95 0 48 -17 84
-57 122 -38 37 -73 48 -147 48 l-64 0 2 53 c1 67 -21 102 -80 128 -39 18 -44
24 -44 52 0 18 -16 239 -35 492 -18 253 -31 463 -27 466 10 8 195 48 257 55
80 9 286 -37 285 -64 0 -4 -58 -117 -128 -252 -122 -233 -129 -245 -161 -251
-18 -4 -38 -12 -44 -18 -18 -18 5 -45 39 -49 23 -2 35 -14 59 -54 37 -63 108
-121 177 -144 96 -33 249 -17 263 27 12 36 -8 43 -75 29 -72 -15 -144 -8 -198
19 -42 21 -95 70 -112 102 -10 18 -4 19 236 19 l246 0 -16 -25 c-20 -31 -21
-61 -1 -69 25 -9 42 3 66 50 19 35 29 44 50 44 62 0 61 60 0 70 -31 5 -38 15
-150 230 l-118 225 78 11 c90 13 161 49 184 94 8 16 15 50 15 75 0 97 -110
157 -193 106 -19 -12 -40 -35 -47 -51 -15 -36 -27 -37 -88 -6 -149 76 -329 94
-522 53 -126 -27 -130 -26 -130 32 0 23 9 44 30 68 42 48 44 116 4 173 -40 58
-121 140 -138 140 -9 0 -40 -25 -69 -56z m123 -85 c55 -66 61 -92 29 -133 -18
-23 -27 -26 -84 -26 -57 0 -66 3 -84 26 -32 41 -26 67 29 133 28 34 53 61 55
61 2 0 27 -27 55 -61z m-12 -266 l3 -43 -45 0 -46 0 0 38 c0 48 6 54 50 50 34
-3 35 -5 38 -45z m-970 -59 c12 -8 29 -31 36 -49 25 -58 41 -57 238 19 138 52
258 53 485 1 143 -32 193 -32 356 4 72 16 156 32 185 35 71 9 200 -10 281 -41
196 -75 212 -76 237 -18 8 19 26 42 40 52 24 15 29 15 53 2 35 -20 49 -61 31
-93 -22 -42 -75 -61 -165 -61 -69 0 -90 5 -151 32 -157 72 -271 79 -481 32
-91 -20 -165 -31 -218 -31 -53 0 -127 11 -218 31 -214 48 -324 41 -482 -32
-60 -28 -81 -32 -150 -32 -91 0 -149 22 -168 62 -14 32 1 74 33 90 32 16 31
16 58 -3z m992 -210 c0 -29 57 -809 66 -901 l6 -63 -137 0 -137 0 6 62 c9 93
66 873 66 902 0 25 2 26 65 26 63 0 65 -1 65 -26z m-676 -238 c64 -124 116
-227 116 -230 0 -4 -107 -6 -239 -6 l-238 0 119 230 c66 127 121 230 123 230
2 0 55 -101 119 -224z m1467 -11 l116 -225 -238 0 c-132 0 -239 2 -239 6 0 14
233 454 238 449 3 -3 58 -107 123 -230z m-623 -791 c30 -21 30 -77 0 -98 -19
-13 -59 -16 -233 -16 -239 0 -255 4 -255 65 0 61 16 65 255 65 174 0 214 -3
233 -16z m215 -188 c46 -19 70 -50 71 -93 l1 -38 -520 0 -520 0 1 38 c1 42 24
73 69 93 44 20 852 20 898 0z"/>
</g>
</svg>
