<?xml version="1.0" standalone="no"?>
<!DOCTYPE svg PUBLIC "-//W3C//DTD SVG 20010904//EN"
 "http://www.w3.org/TR/2001/REC-SVG-20010904/DTD/svg10.dtd">
<svg version="1.0" xmlns="http://www.w3.org/2000/svg"
 width="512.000000pt" height="512.000000pt" viewBox="0 0 512.000000 512.000000"
 preserveAspectRatio="xMidYMid meet">

<g transform="translate(0.000000,512.000000) scale(0.100000,-0.100000)"
fill="#000000" stroke="none">
<path d="M2310 4549 c-685 -70 -1186 -445 -1412 -1059 -20 -52 -43 -127 -52
-166 -17 -70 -18 -71 -81 -112 -142 -94 -247 -258 -287 -449 -63 -305 52 -833
244 -1116 88 -131 207 -224 315 -248 47 -11 56 -17 80 -58 38 -65 179 -208
270 -273 127 -92 293 -166 407 -183 43 -7 44 -8 50 -51 13 -100 87 -192 191
-241 51 -24 73 -28 145 -28 76 0 93 4 152 33 78 38 130 92 169 176 110 236
-43 513 -294 533 -141 12 -302 -79 -260 -146 17 -28 57 -24 112 10 45 28 62
33 119 33 76 0 126 -21 179 -76 161 -167 52 -459 -173 -462 -49 -1 -72 5 -119
29 -77 39 -112 93 -123 188 -5 37 -13 72 -19 78 -5 5 -39 14 -74 19 -131 19
-271 78 -399 168 -98 69 -220 198 -260 274 l-34 66 -56 5 c-204 18 -378 259
-480 666 -46 184 -55 247 -55 401 0 164 20 254 78 365 41 78 156 194 224 226
50 23 52 26 63 79 22 108 84 284 139 394 78 154 140 244 251 359 240 251 527
393 915 453 150 23 469 23 618 0 586 -91 975 -391 1172 -906 30 -78 65 -212
80 -302 5 -33 12 -40 68 -69 177 -90 310 -259 364 -464 14 -56 18 -106 17
-255 0 -102 -6 -221 -13 -265 -60 -377 -222 -638 -476 -766 -73 -37 -85 -40
-135 -35 -124 14 -223 91 -255 200 -23 76 -22 1269 1 1345 30 102 139 185 277
212 l57 12 0 47 c0 97 -77 281 -187 447 -221 332 -553 598 -886 708 -483 159
-978 22 -1388 -385 -249 -247 -427 -553 -448 -767 l-7 -72 86 6 c73 5 93 3
132 -14 49 -23 93 -72 114 -130 10 -30 13 -147 13 -548 0 -280 -4 -557 -9
-614 -18 -205 -56 -269 -168 -292 -34 -7 -62 -16 -62 -20 0 -4 9 -37 20 -73
38 -123 169 -232 376 -315 158 -64 194 -64 194 -1 0 33 -17 45 -120 84 -138
52 -231 107 -297 172 -35 34 -63 67 -63 72 0 6 20 20 45 32 78 38 131 115 163
237 15 61 17 131 17 673 l0 605 -27 56 c-51 104 -127 161 -239 181 -68 12 -67
2 -18 126 68 172 188 343 368 522 393 393 832 517 1289 365 214 -71 401 -194
597 -390 153 -153 243 -274 326 -440 66 -133 84 -195 54 -195 -10 0 -52 -16
-93 -36 -91 -44 -163 -113 -200 -192 l-27 -57 -3 -669 c-2 -598 -1 -675 14
-720 52 -160 183 -262 353 -273 76 -6 83 -4 157 31 290 138 478 416 550 811
14 76 18 152 19 320 0 258 -8 300 -87 465 -45 94 -61 114 -147 200 -54 54
-122 110 -157 130 l-61 34 -12 66 c-31 167 -129 402 -240 570 -121 185 -362
391 -574 490 -293 137 -692 197 -1067 159z"/>
</g>
</svg>
